<svg width="55" height="55" viewBox="0 0 55 55" fill="none" xmlns="http://www.w3.org/2000/svg">
<path d="M10.8437 41.3125C13.1458 39.552 15.7187 38.164 18.5625 37.1484C21.4062 36.1328 24.3854 35.625 27.5 35.625C30.6145 35.625 33.5937 36.1328 36.4375 37.1484C39.2812 38.164 41.8541 39.552 44.1562 41.3125C45.7361 39.4618 46.9661 37.3628 47.8463 35.0156C48.7265 32.6684 49.1666 30.1632 49.1666 27.5C49.1666 21.4965 47.0564 16.3845 42.8359 12.164C38.6154 7.94354 33.5034 5.83329 27.5 5.83329C21.4965 5.83329 16.3845 7.94354 12.164 12.164C7.94354 16.3845 5.83329 21.4965 5.83329 27.5C5.83329 30.1632 6.2734 32.6684 7.1536 35.0156C8.03381 37.3628 9.26385 39.4618 10.8437 41.3125ZM27.5 30.2083C24.8368 30.2083 22.5911 29.2942 20.763 27.4661C18.9349 25.638 18.0208 23.3923 18.0208 20.7291C18.0208 18.0659 18.9349 15.8203 20.763 13.9921C22.5911 12.164 24.8368 11.25 27.5 11.25C30.1632 11.25 32.4088 12.164 34.2369 13.9921C36.0651 15.8203 36.9791 18.0659 36.9791 20.7291C36.9791 23.3923 36.0651 25.638 34.2369 27.4661C32.4088 29.2942 30.1632 30.2083 27.5 30.2083ZM27.5 54.5833C23.7534 54.5833 20.2326 53.8724 16.9375 52.4505C13.6423 51.0286 10.776 49.0989 8.3385 46.6614C5.901 44.2239 3.97131 41.3576 2.54944 38.0625C1.12756 34.7673 0.416626 31.2465 0.416626 27.5C0.416626 23.7534 1.12756 20.2326 2.54944 16.9375C3.97131 13.6423 5.901 10.776 8.3385 8.3385C10.776 5.901 13.6423 3.97131 16.9375 2.54944C20.2326 1.12756 23.7534 0.416626 27.5 0.416626C31.2465 0.416626 34.7673 1.12756 38.0625 2.54944C41.3576 3.97131 44.2239 5.901 46.6614 8.3385C49.0989 10.776 51.0286 13.6423 52.4505 16.9375C53.8724 20.2326 54.5833 23.7534 54.5833 27.5C54.5833 31.2465 53.8724 34.7673 52.4505 38.0625C51.0286 41.3576 49.0989 44.2239 46.6614 46.6614C44.2239 49.0989 41.3576 51.0286 38.0625 52.4505C34.7673 53.8724 31.2465 54.5833 27.5 54.5833Z" fill="white"/>
</svg>
