<svg width="65" height="62" viewBox="0 0 65 62" fill="none" xmlns="http://www.w3.org/2000/svg">
<path d="M2.70837 2.70837H13.5417L20.8 38.973C21.0477 40.2199 21.726 41.3399 22.7163 42.1371C23.7066 42.9343 24.9457 43.3577 26.2167 43.3334H52.5417C53.8127 43.3577 55.0518 42.9343 56.0421 42.1371C57.0324 41.3399 57.7107 40.2199 57.9584 38.973L62.2917 16.25H16.25M27.0834 56.875C27.0834 58.3708 25.8708 59.5834 24.375 59.5834C22.8793 59.5834 21.6667 58.3708 21.6667 56.875C21.6667 55.3793 22.8793 54.1667 24.375 54.1667C25.8708 54.1667 27.0834 55.3793 27.0834 56.875ZM56.875 56.875C56.875 58.3708 55.6625 59.5834 54.1667 59.5834C52.6709 59.5834 51.4584 58.3708 51.4584 56.875C51.4584 55.3793 52.6709 54.1667 54.1667 54.1667C55.6625 54.1667 56.875 55.3793 56.875 56.875Z" stroke="white" stroke-width="4" stroke-linecap="round" stroke-linejoin="round"/>
</svg>
